:SAMPLES-PER-SECOND 30
:FULLY-SPECIFIED
:DEGREES
559
root  21.7795 38.1577 -6.00029 -3.94415 -89.2828 -3.62103
RightUpLeg  23.3032 -10.5622 -4.24345
RightLeg  6.95191 -5.0054 2.19367
RightFoot  -19.7783 0.224565 4.86347
RightToes  5.23868e-010 0 -3.6325e-017
Spine  3.40102 2.1452 3.11296
Spine1  13.9189 3.59871 -3.74707
HEad  -3.79109 -11.4332 -5.6208
LeftShoulder1  -0.0206365 3.56246 -29.1934
LeftArm  -14.8648 3.7293 -36.7934
LeftForeArm  67.2568 -78.9417 -88.9143
LeftHand  0.011669 4.21245 -3.63011
RightShoulder  -0.42227 -4.7815 26.1164
RightArm  -12.1568 -12.9191 35.7878
RightForeArm  105.275 72.7605 138.753
RightHand  -0.0446572 -3.79332 -1.83293
LeftUpLeg  -14.4577 0.809226 -5.03469
LeftLeg  4.25502 7.53906 -0.782717
LeftFoot  3.67611 -0.487251 3.47061
LeftToes  -4.9204e-010 1.02043e-011 -1.81609e-011
560
root  20.4461 37.9536 -6.13903 -103.241 -87.9996 94.7161
RightUpLeg  25.4527 -12.5812 -7.45093
RightLeg  9.9212 -0.388466 1.58122
RightFoot  -20.9898 0.481031 7.30686
RightToes  5.23868e-010 0 -3.6325e-017
Spine  3.94951 2.83368 1.11087
Spine1  13.9168 4.24761 -3.78748
HEad  -4.05703 -10.4208 -5.16544
LeftShoulder1  -0.0180628 3.55431 -29.1618
LeftArm  -14.9173 4.22973 -36.6057
LeftForeArm  69.4219 -78.9317 -91.3409
LeftHand  -0.018142 4.96483 -3.36566
RightShoulder  -0.477201 -4.93001 26.6024
RightArm  -11.6313 -13.4432 35.7122
RightForeArm  104.588 72.9579 138.127
RightHand  -0.0513052 -3.42202 -2.01879
LeftUpLeg  -14.4028 1.39945 -6.19008
LeftLeg  8.8422 7.34918 0.0478197
LeftFoot  8.74451 -1.22419 6.73048
LeftToes  -4.9204e-010 1.02043e-011 -1.81609e-011
561
root  19.1269 37.7448 -6.14482 -66.5532 -86.3133 57.1489
RightUpLeg  26.6395 -15.7601 -11.6452
RightLeg  15.5499 3.24489 1.54242
RightFoot  -21.6162 0.890016 11.5319
RightToes  5.23868e-010 0 -3.6325e-017
Spine  5.12192 2.12408 -1.60932
Spine1  13.0821 3.19808 -3.49251
HEad  -3.67116 -9.39685 -4.95407
LeftShoulder1  -0.0633289 3.68055 -29.6652
LeftArm  -14.8529 4.58004 -35.8792
LeftForeArm  68.6491 -78.9492 -90.1966
LeftHand  -0.00885009 4.67231 -3.94805
RightShoulder  -0.513367 -5.02201 26.999
RightArm  -11.2303 -13.949 36.0015
RightForeArm  103.847 73.329 136.99
RightHand  -0.0466636 -3.82052 -2.04867
LeftUpLeg  -15.1336 1.85323 -9.18017
LeftLeg  16.0012 4.96644 1.68866
LeftFoot  6.08304 -1.40566 8.91076
LeftToes  -4.9204e-010 1.02043e-011 -1.81609e-011
562
root  17.878 37.707 -6.16701 -78.4725 -85.8763 68.6641
RightUpLeg  24.707 -14.4764 -12.7038
RightLeg  23.6086 4.58954 1.89126
RightFoot  -19.0052 1.00028 17.2288
RightToes  5.23868e-010 0 -3.6325e-017
Spine  5.39605 2.39867 -2.44088
Spine1  13.1466 3.42423 -4.36833
HEad  -3.52476 -7.9801 -5.24372
LeftShoulder1  -0.00576074 3.51981 -29.4188
LeftArm  -14.7459 5.45305 -35.9409
LeftForeArm  66.7909 -78.9396 -88.4624
LeftHand  -0.0104174 4.37491 -2.87015
RightShoulder  -0.511551 -5.01072 27.1241
RightArm  -10.8641 -14.8309 36.1273
RightForeArm  103.377 73.551 136.276
RightHand  -0.0498985 -3.26667 -1.80954
LeftUpLeg  -14.6438 2.82674 -9.89642
LeftLeg  19.931 4.70847 2.25147
LeftFoot  3.24822 -1.30902 10.0338
LeftToes  -4.9204e-010 1.02043e-011 -1.81609e-011
563
root  16.7377 37.7342 -6.03701 -82.8283 -85.6806 73.2059
RightUpLeg  19.7049 -11.7243 -12.7889
RightLeg  34.3237 4.2891 2.87829
RightFoot  -12.6315 0.181327 22.2842
RightToes  5.23868e-010 0 -3.6325e-017
Spine  5.37408 2.31609 -1.97276
Spine1  13.1789 3.46091 -5.86101
HEad  -3.85903 -6.59805 -5.52723
LeftShoulder1  -0.0545048 3.65592 -29.6698
LeftArm  -14.5146 5.73825 -35.6633
LeftForeArm  65.5981 -78.9352 -87.1597
LeftHand  -0.0021099 4.69402 -4.14505
RightShoulder  -0.496485 -4.97151 26.9901
RightArm  -10.3524 -14.9483 35.8007
RightForeArm  103.266 73.5787 136.176
RightHand  -0.0435815 -3.94064 -1.83551
LeftUpLeg  -14.0983 1.93342 -10.3093
LeftLeg  22.3639 6.14366 3.109
LeftFoot  0.416164 -1.06859 10.3147
LeftToes  -4.9204e-010 1.02043e-011 -1.81609e-011
564
root  15.6065 37.8955 -6.01828 -103.282 -84.6596 93.9233
RightUpLeg  12.3617 -7.20915 -12.9327
RightLeg  46.2577 3.75693 3.9287
RightFoot  -1.5229 -1.51896 18.8002
RightToes  5.23868e-010 0 -3.6325e-017
Spine  5.57401 2.81149 -3.15815
Spine1  12.5638 3.97349 -6.38376
HEad  -4.27326 -5.45304 -5.48577
LeftShoulder1  0.00263369 3.49646 -29.2329
LeftArm  -14.3542 6.61241 -35.5485
LeftForeArm  67.5232 -78.9444 -89.2312
LeftHand  -0.00880571 4.73888 -3.39121
RightShoulder  -0.507988 -5.00526 26.995
RightArm  -9.81899 -14.2243 35.3845
RightForeArm  102.182 73.7057 135.626
RightHand  -0.053506 -3.51362 -2.20364
LeftUpLeg  -12.4096 3.52804 -11.2324
LeftLeg  22.2866 6.36264 3.18242
LeftFoot  -1.58238 -0.853509 10.0718
LeftToes  -4.9204e-010 1.02043e-011 -1.81609e-011
565
root  14.565 38.0239 -5.99942 -109.26 -84.1274 99.7905
RightUpLeg  5.80519 -4.1059 -12.66
RightLeg  55.7223 3.8147 5.57041
RightFoot  7.72712 -2.09725 12.4575
RightToes  5.23868e-010 0 -3.6325e-017
Spine  5.98319 2.76928 -4.23797
Spine1  12.6324 3.62436 -6.03166
HEad  -6.42646 -2.77364 -5.13975
LeftShoulder1  0.0215457 3.44268 -29.0303
LeftArm  -14.5757 6.93517 -35.3286
LeftForeArm  68.3727 -78.9435 -90.0575
LeftHand  -0.0142362 5.02142 -3.76533
RightShoulder  -0.428953 -4.79126 26.4047
RightArm  -9.80382 -13.1757 35.8258
RightForeArm  102.393 73.8812 135.122
RightHand  -0.0435268 -3.74825 -1.71792
LeftUpLeg  -10.521 4.22572 -11.451
LeftLeg  22.4025 6.48827 3.1514
LeftFoot  -3.59066 -0.628296 9.57561
LeftToes  -4.9204e-010 1.02043e-011 -1.81609e-011
566
root  13.5583 38.1953 -5.95981 -108.954 -84.3052 99.3789
RightUpLeg  0.658327 -1.89981 -12.0282
RightLeg  61.8261 3.42096 6.40471
RightFoot  3.7239 -1.79083 13.6564
RightToes  5.23868e-010 0 -3.6325e-017
Spine  6.38786 2.39793 -4.72908
Spine1  12.6224 2.91278 -5.59196
HEad  -11.5517 4.53187 -3.1644
LeftShoulder1  0.0183006 3.45146 -28.818
LeftArm  -14.619 6.99745 -35.455
LeftForeArm  66.3012 -78.9305 -88.1459
LeftHand  -0.00981694 4.79814 -4.26175
RightShoulder  -0.427687 -4.78414 26.4697
RightArm  -9.73124 -12.17 35.8333
RightForeArm  102.062 73.9662 134.803
RightHand  -0.0478982 -3.68247 -1.9504
LeftUpLeg  -8.42235 4.1654 -11.1699
LeftLeg  22.0348 6.56392 2.94816
LeftFoot  -5.14086 -0.473498 9.29527
LeftToes  -4.9204e-010 1.02043e-011 -1.81609e-011
567
root  12.5429 38.4062 -5.91682 -99.5305 -85.1106 90.0038
RightUpLeg  -4.27774 -0.769171 -10.9268
RightLeg  64.7674 3.31665 7.07178
RightFoot  3.47315 -1.50354 11.7161
RightToes  5.23868e-010 0 -3.6325e-017
Spine  6.4663 1.71149 -4.41532
Spine1  12.6422 2.04664 -5.30261
HEad  -11.2025 4.27238 -3.55586
LeftShoulder1  0.0547063 3.34755 -28.8982
LeftArm  -14.378 6.31938 -35.705
LeftForeArm  63.197 -78.8911 -85.1999
LeftHand  -0.0108064 4.81201 -3.93431
RightShoulder  -0.481824 -4.93905 26.721
RightArm  -10.2661 -11.9434 35.7576
RightForeArm  102.795 73.898 135.135
RightHand  -0.0367241 -3.79222 -1.2166
LeftUpLeg  -6.2803 3.9684 -10.4375
LeftLeg  21.3221 5.8821 2.41905
LeftFoot  -6.36167 -0.362302 9.20329
LeftToes  -4.9204e-010 1.02043e-011 -1.81609e-011
568
root  11.4979 38.6189 -5.8965 -88.1072 -85.8537 78.8345
RightUpLeg  -8.85764 0.316166 -9.68996
RightLeg  64.8378 3.13046 6.68298
RightFoot  3.00454 -1.20439 9.69618
RightToes  5.23868e-010 0 -3.6325e-017
Spine  6.10791 1.17738 -4.68223
Spine1  12.7584 1.09881 -3.92976
HEad  -10.4787 3.79757 -3.27479
LeftShoulder1  0.0362609 3.40099 -29.1408
LeftArm  -14.4399 5.67294 -36.1919
LeftForeArm  61.3442 -78.853 -83.4894
LeftHand  -0.00216992 4.56752 -3.74607
RightShoulder  -0.46374 -4.89654 26.4257
RightArm  -10.916 -12.2471 35.9539
RightForeArm  103.268 73.6379 136
RightHand  -0.048602 -3.55578 -1.94388
LeftUpLeg  -4.13332 4.04592 -9.47658
LeftLeg  20.2565 4.95894 1.81038
LeftFoot  -7.53371 -0.264633 9.29454
LeftToes  -4.9204e-010 1.02043e-011 -1.81609e-011
569
root  10.4614 38.7784 -5.88701 -76.2743 -86.3301 67.182
RightUpLeg  -12.671 1.78826 -8.63213
RightLeg  62.0591 3.02712 5.6781
RightFoot  1.42908 -0.963669 8.73319
RightToes  5.23868e-010 0 -3.6325e-017
Spine  6.14654 0.699733 -4.70295
Spine1  12.44 0.395157 -3.11072
HEad  -10.127 4.3451 -2.95998
LeftShoulder1  0.066093 3.31568 -28.981
LeftArm  -14.6623 5.66 -36.67
LeftForeArm  63.487 -78.9075 -85.0449
LeftHand  -0.00874995 4.80522 -4.26035
RightShoulder  -0.459554 -4.88362 26.4287
RightArm  -11.6708 -12.7943 36.0409
RightForeArm  104.472 73.2348 137.35
RightHand  -0.0515566 -3.6686 -2.23343
LeftUpLeg  -1.93354 4.39532 -8.54056
LeftLeg  19.156 3.87628 1.22101
LeftFoot  -8.83607 -0.14755 9.18063
LeftToes  -4.9204e-010 1.02043e-011 -1.81609e-011
570
root  9.42337 38.8887 -5.87301 -65.4969 -86.5808 56.2587
RightUpLeg  -15.1603 2.90384 -7.99768
RightLeg  56.442 3.06339 4.55391
RightFoot  -0.903527 -0.877243 9.48581
RightToes  5.23868e-010 0 -3.6325e-017
Spine  6.46534 0.329831 -4.74674
Spine1  12.2412 -0.197551 -2.22519
HEad  -9.60363 3.70671 -2.44059
LeftShoulder1  0.0321231 3.41253 -29.0333
LeftArm  -14.441 5.18661 -36.7877
LeftForeArm  63.9334 -78.9121 -85.5754
LeftHand  -0.000598232 4.54572 -3.87273
RightShoulder  -0.462442 -4.89902 26.2698
RightArm  -12.2277 -13.3771 36.0845
RightForeArm  106.08 72.6665 139.109
RightHand  -0.049844 -3.77924 -2.22115
LeftUpLeg  0.588967 4.9855 -7.67731
LeftLeg  18.0734 2.97138 0.769285
LeftFoot  -10.0579 -0.0438341 9.28929
LeftToes  -4.9204e-010 1.02043e-011 -1.81609e-011
571
root  8.37473 38.9626 -5.85231 -56.7016 -86.4498 47.6244
RightUpLeg  -16.9806 3.63891 -7.70889
RightLeg  48.3197 3.07984 3.39175
RightFoot  -1.69586 -0.730417 8.51185
RightToes  5.23868e-010 0 -3.6325e-017
Spine  6.4446 0.0319839 -4.95056
Spine1  12.0526 -0.668945 -1.1742
HEad  -9.53138 2.93934 -2.06537
LeftShoulder1  0.0348561 3.40436 -28.9973
LeftArm  -14.2136 4.72404 -37.0006
LeftForeArm  64.3106 -78.9084 -86.2424
LeftHand  0.0125277 4.09401 -3.33216
RightShoulder  -0.447454 -4.85825 26.1342
RightArm  -12.7881 -13.9215 36.0225
RightForeArm  107.728 72.0653 140.834
RightHand  -0.046248 -3.80736 -1.97123
LeftUpLeg  2.74403 5.40668 -7.143
LeftLeg  17.0583 1.98645 0.32998
LeftFoot  -11.192 0.0554815 9.24088
LeftToes  -4.9204e-010 1.02043e-011 -1.81609e-011
572
root  7.29417 38.9863 -5.83026 -50.2426 -86.2339 41.259
RightUpLeg  -17.4506 3.95663 -7.52536
RightLeg  37.671 3.06705 2.28387
RightFoot  -2.12253 -0.697019 8.45149
RightToes  5.23868e-010 0 -3.6325e-017
Spine  6.00682 -0.285566 -4.80541
Spine1  12.5426 -0.953657 -0.782171
HEad  -9.51242 2.8694 -1.72981
LeftShoulder1  0.0821282 3.26551 -28.3017
LeftArm  -14.6599 4.34225 -37.869
LeftForeArm  63.6369 -78.9027 -85.4698
LeftHand  0.0275764 3.76556 -3.72966
RightShoulder  -0.496014 -4.98389 26.6835
RightArm  -13.2798 -13.7702 35.8201
RightForeArm  108.753 71.7191 141.768
RightHand  -0.0427666 -3.67978 -1.59251
LeftUpLeg  5.04758 5.92759 -6.5913
LeftLeg  16.0052 1.05189 -0.118921
LeftFoot  -12.3626 0.157286 9.26399
LeftToes  -4.9204e-010 1.02043e-011 -1.81609e-011
573
root  6.18861 38.9529 -5.81607 -46.813 -86.0249 38.0989
RightUpLeg  -17.049 3.23299 -7.34122
RightLeg  25.3088 3.6317 1.70351
RightFoot  -1.90386 -0.714609 8.48107
RightToes  5.23868e-010 0 -3.6325e-017
Spine  5.34148 -0.502706 -4.46645
Spine1  13.1897 -1.10124 -0.450377
HEad  -9.83783 3.60186 -2.09457
LeftShoulder1  0.134283 3.11385 -28.2779
LeftArm  -14.9922 3.74707 -38.0383
LeftForeArm  64.0068 -78.9116 -85.7109
LeftHand  0.00786518 4.44226 -4.39584
RightShoulder  -0.471397 -4.91118 26.6291
RightArm  -14.1448 -14.1713 36.2952
RightForeArm  110.377 71.0321 143.465
RightHand  -0.0500696 -3.66665 -2.15191
LeftUpLeg  7.09058 6.57783 -5.93821
LeftLeg  15.2356 -0.00422007 -0.721581
LeftFoot  -13.7512 0.2772 9.22327
LeftToes  -4.9204e-010 1.02043e-011 -1.81609e-011
